<?xml version="1.0" encoding="utf-8"?>
<!-- Generator: Adobe Illustrator 27.5.0, SVG Export Plug-In . SVG Version: 6.00 Build 0)  -->
<svg version="1.1" xmlns="http://www.w3.org/2000/svg" xmlns:xlink="http://www.w3.org/1999/xlink" x="0px" y="0px"
	 viewBox="0 0 1200 1200" style="enable-background:new 0 0 1200 1200;" xml:space="preserve">
<g id="Background">
	<rect style="fill:#F5F4F3;" width="1200" height="1200"/>
</g>
<g id="Graphic_Elements">
	<g id="Graphic_Elements_1_">
		<path style="fill:#F7F5F4;" d="M860.958,572.113c-23.852,0-43.258,19.406-43.258,43.257s19.406,43.257,43.258,43.257
			c23.852,0,43.257-19.406,43.257-43.257S884.81,572.113,860.958,572.113z M860.958,636.568c-12.747,0-23.117-10.367-23.117-23.114
			s10.37-23.117,23.117-23.117s23.115,10.37,23.115,23.117S873.704,636.568,860.958,636.568z"/>
		<g>
			<path d="M862.958,562.662c-28.513,0-51.71,23.196-51.71,51.708c0,28.513,23.197,51.708,51.71,51.708
				c28.513,0,51.708-23.196,51.708-51.708C914.666,585.858,891.47,562.662,862.958,562.662z M862.958,657.627
				c-23.852,0-43.258-19.406-43.258-43.257s19.406-43.257,43.258-43.257c23.852,0,43.257,19.406,43.257,43.257
				S886.81,657.627,862.958,657.627z"/>
			<path d="M862.958,589.338c-12.747,0-23.117,10.37-23.117,23.117s10.37,23.114,23.117,23.114s23.115-10.367,23.115-23.114
				S875.704,589.338,862.958,589.338z"/>
		</g>
		<path style="fill:#F7F5F4;" d="M398.245,570.091c-23.852-0.065-43.311,19.288-43.377,43.138
			c-0.065,23.85,19.288,43.31,43.14,43.375c23.852,0.065,43.31-19.288,43.375-43.138
			C441.449,589.615,422.097,570.156,398.245,570.091z M398.069,634.545c-12.747-0.035-23.088-10.43-23.053-23.177
			c0.035-12.747,10.433-23.088,23.18-23.053c12.747,0.035,23.087,10.433,23.052,23.18
			C421.212,624.242,410.815,634.58,398.069,634.545z"/>
		<g>
			<path d="M352.268,560.639c-28.512-0.078-51.773,23.054-51.851,51.566s23.056,51.771,51.568,51.85
				c28.513,0.078,51.772-23.054,51.85-51.566S380.781,560.718,352.268,560.639z M352.008,655.604
				c-23.852-0.065-43.205-19.525-43.14-43.375c0.065-23.85,19.525-43.204,43.377-43.138c23.852,0.065,43.204,19.525,43.138,43.375
				C395.318,636.316,375.86,655.669,352.008,655.604z"/>
			<path d="M352.195,587.315c-12.747-0.035-23.145,10.307-23.18,23.053c-0.035,12.747,10.307,23.142,23.053,23.177
				c12.747,0.035,23.144-10.304,23.178-23.05C375.282,597.748,364.942,587.35,352.195,587.315z"/>
		</g>
		<path d="M1029.403,465.381c-15.36-16.769-50.035-10.658-68.665-7.375c-2.095,0.37-3.93,0.694-5.435,0.924
			c-0.109,0.018-0.22,0.039-0.327,0.07c-43.437,11.583-182.481,13.905-183.831,13.926H332.196v0.015
			c-17.315-0.055-65.97-0.773-114.102-6.642c-26.944-3.231-51.973-5.047-62.289,8.078c-6.146,7.818-6.169,19.546-0.07,35.848
			c0.112,0.3,0.27,0.579,0.467,0.831l0.282,0.358c35.627,45.536,108.258,53.281,153.426,53.281c8.559,0,16.139-0.279,22.286-0.63
			h500.246c147.377,0,196.363-40.186,201.661-61.384C1038.534,486.172,1036.952,473.623,1029.403,465.381z M837.77,534.14
			l-497.45,0.003c-117.507,0-141.443-27.1-142.405-28.255l7.068-6.002c0.224,0.252,23.728,24.987,135.338,24.987h497.292
			c1.125-0.042,128.505-4.811,166.647-41.538l6.429,6.675C969.996,529.199,843.15,533.958,837.77,534.14z"/>
		<path style="fill:#F7F5F4;" d="M367.92,421.417c0.465,0.132,0.993,0.258,1.493,0.387c13.345,3.468,39.293,5.834,71.659,7.406
			c0.524,0.025,1.043,0.051,1.57,0.076c1.48,0.071,2.979,0.138,4.485,0.205c1.104,0.049,2.211,0.099,3.328,0.146
			c1.09,0.047,2.186,0.092,3.287,0.136c1.665,0.068,3.344,0.134,5.035,0.199c0.647,0.024,1.294,0.048,1.945,0.073
			c2.347,0.086,4.717,0.17,7.109,0.25c0.057,0.002,0.114,0.005,0.171,0.006c111.637,3.73,270.424,0.335,279.71-0.38l2.518-0.158
			c24.107-1.519,49.034-3.089,72.407-10.067c3.257-0.973,6.62-2.495,9.991-4.526c0.609-0.366,1.331-0.871,2.088-1.412
			c0.185-0.132,0.358-0.252,0.548-0.389c0.026-0.018,0.061-0.044,0.088-0.064c0.256-0.183,0.521-0.374,0.792-0.567
			c0.066-0.046,0.136-0.095,0.203-0.142c0.277-0.195,0.556-0.389,0.829-0.571c0.029-0.021,0.058-0.039,0.088-0.058
			c0.496-0.328,0.945-0.59,1.342-0.787c0.465,0.364,1.092,0.998,1.47,1.385l0.291,0.294c2.114,2.13,3.907,4.947,5.483,8.477
			c-1.469,0.78-2.897,1.757-4.22,2.69c-0.75,0.527-1.449,1.031-2.036,1.376c-2.69,1.579-10.958,5.223-13.612,5.996
			c-22.899,6.681-47.865,8.218-72.009,9.703l-2.674,0.164c-9.782,0.733-96.823,2.537-187.676,2.052
			c-109.27-0.593-179.439-4.326-198.985-10.54C365.701,427.883,366.955,424.004,367.92,421.417z"/>
		<path style="fill:#F7F5F4;" d="M573.904,304.763c0.285-0.625,1.044-2.283,1.863-2.783c0.681-0.415,2.549-0.634,7.383,2.58
			l30.887,20.565c-14.268-4.018-29.37-3.93-43.2,0.088C569.945,318.278,570.984,311.144,573.904,304.763z"/>
		<path style="fill:#F5F4F3;" d="M848.691,451.209c0.067,4.611,0.124,8.591,0.327,11.131c0.527,6.587-3.239,8.339-13.338,11.334
			l-1.74,0.518c-22.073,6.669-45.846,9.461-68.835,12.165l-2.878,0.336c-25.142,2.962-51.511,5.341-78.359,7.075
			c-8.512,0.516-17.598,0.926-27.101,1.247c10.882-22.547,22.908-36.932,35.811-42.752l-0.18-0.399
			c33.23-0.496,56.142-1.094,59.535-1.35l2.608-0.161c24.652-1.516,50.146-3.083,74.037-10.055
			c3.647-1.064,12.613-5.084,15.713-6.905c0.771-0.452,1.698-1.097,2.683-1.792c0.274-0.194,0.608-0.43,0.965-0.676
			C848.483,437.118,848.602,445.148,848.691,451.209z"/>
		<path style="fill:#F5F4F3;" d="M374.748,489.337c-8.974-1.149-9.152-6.611-9.001-8.188c0.059-0.458,0.05-0.922-0.029-1.376
			l-2.213-12.898c-1.361-9.306-1.21-17.747-0.386-24.909c30.284,8.508,135.125,10.662,228.409,10.662
			c30.393,0,59.549-0.228,84.494-0.539c-10.777,9.205-20.703,23.678-29.638,43.239C540.145,498.116,389.764,490.697,374.748,489.337
			z"/>
		<path d="M858.261,461.6c-0.18-2.24-0.236-6.081-0.3-10.525c-0.212-14.493-0.555-26.027-2.83-31.674
			c-2.199-5.463-4.876-9.74-8.181-13.071l-0.262-0.264c-1.363-1.388-3.678-3.699-6.766-4.208c-0.114-0.082-0.208-0.185-0.33-0.257
			c-7.181-4.235-14.018-5.687-21.257-7.224l-1.223-0.261c-7.765-1.655-15.924-3.08-24.244-4.238
			c-3.204-0.452-6.404-0.94-9.594-1.473c-9.244-1.546-18.557-3.475-27.97-5.788c0.036-0.148,0.075-0.306,0.111-0.453l0.126-0.518
			c0.19-0.785,0.376-1.373,0.535-1.886c0.578-1.849,0.943-3.271,0.762-6.072c-0.294-4.562-2.028-8.594-4.882-11.355
			c-3.454-3.341-7.607-4.917-12.007-4.496c-5.461,0.494-11.108,4.135-15.11,9.731c-1.277,1.788-2.396,3.469-3.48,5.106
			c-6.073-2.035-12.205-4.224-18.399-6.578c1.76-4.176,2.946-8.644,1.932-13.309c-2.087-9.612-11.657-16.29-20.907-14.605
			c-6.972,1.279-11.967,6.404-15.719,11.908l-12.407-8.26c3.134-5.694,6.187-12.293,4.338-19.237
			c-1.19-4.468-4.286-8.063-8.716-10.125c-5.143-2.392-11.51-2.38-16.619,0.012c-4.201,1.972-7.591,5.024-10.449,8.414
			l-36.126-24.052c-2.593-1.725-10.487-6.972-17.36-2.768c-2.863,1.752-4.418,4.571-5.452,6.833
			c-3.927,8.578-5.126,18.251-3.515,27.527c-1.672,0.727-3.325,1.495-4.936,2.347c-4.824,2.552-9.318,5.593-13.662,8.536
			c-3.136,2.122-6.378,4.317-9.629,6.235c-17.535,10.361-39.389,15.017-61.551,13.101c-26.395-2.273-47.939-14.378-70.746-27.191
			l-5.578-3.125c-1.691-0.949-4.009-2.243-6.814-2.471c-15.946-1.282-23.385,23.326-26.818,44.215
			c-2.699,16.436-2.971,30.601-0.867,43.183c-0.054,0.092-0.122,0.174-0.171,0.271c-0.471,0.927-11.475,23.108-6.836,54.791
			l2.137,12.465c-0.062,1.44,0.033,4.48,1.523,7.703c1.805,3.901,5.97,8.809,15.728,10.058c12.86,1.167,122.464,6.666,220.522,6.663
			c32.675,0,64.088-0.609,90.186-2.195c27.029-1.743,53.562-4.138,78.866-7.117l2.875-0.34c23.39-2.749,47.577-5.59,70.433-12.495
			l1.698-0.506C847.23,479.919,859.438,476.299,858.261,461.6z M732.137,372.789c2.43-3.401,5.814-5.763,8.623-6.017
			c1.754-0.158,3.391,0.497,4.956,2.013c1.229,1.188,2.019,3.186,2.166,5.481c0.088,1.349-0.002,1.631-0.373,2.822
			c-0.206,0.661-0.444,1.425-0.691,2.443l-0.126,0.521c-0.021,0.09-0.045,0.182-0.066,0.271c-5.433-1.463-10.899-3.037-16.412-4.761
			C730.823,374.662,731.458,373.74,732.137,372.789z M698.925,374.484c5.679,2.168,11.305,4.193,16.887,6.1
			c-0.874,1.111-1.792,2.224-2.852,3.366c-2.765,2.98-6.989,4.923-10.473,4.774c-2.016-0.073-3.607-0.818-4.729-2.216
			C695.343,383.497,696.118,380.309,698.925,374.484z M685.605,347.011c4.441-0.816,9.47,2.843,10.519,7.681
			c0.532,2.448-0.247,5.215-1.519,8.162c-6.185-2.471-12.45-5.123-18.776-7.913C678.466,351.114,681.694,347.726,685.605,347.011z
			 M662.816,359.29c-2.789,4.874-5.817,9.487-10.009,11.531c-2.17,1.061-5.359,0.752-7.578-0.737
			c-1.044-0.697-2.264-1.922-2.148-3.786c0.103-1.646,1.135-3.507,2.134-5.305l4.412-7.938
			C654.088,355.225,658.485,357.299,662.816,359.29z M638.676,320.602c2.725-1.279,6.266-1.279,9.018,0
			c1.399,0.652,3.2,1.928,3.833,4.301c0.953,3.584-0.934,7.819-3.165,11.937l-16.39-10.914
			C633.965,323.699,636.173,321.778,638.676,320.602z M573.904,304.763c0.285-0.625,1.044-2.283,1.863-2.783
			c0.681-0.415,2.549-0.634,7.383,2.58l30.887,20.565c-14.268-4.018-29.37-3.93-43.2,0.088
			C569.945,318.278,570.984,311.144,573.904,304.763z M388.292,335.107c0.794,0.064,1.986,0.73,3.04,1.322l5.561,3.119
			c23.706,13.316,46.099,25.896,74.49,28.346c24.058,2.067,47.878-3.025,67.065-14.356c3.495-2.067,6.858-4.344,10.109-6.545
			c4.33-2.931,8.419-5.699,12.8-8.015c15.225-8.048,33.796-9.77,50.943-4.723c0.841,0.247,1.66,0.578,2.484,0.885l-10.713,17.197
			l7.618,4.741l11.281-18.11c1.693,0.928,3.391,1.892,5.123,2.896c2.562,1.485,5.212,3.022,7.93,4.411
			c1.869,0.956,3.706,1.842,5.565,2.774l-4.217,7.587c-1.344,2.422-3.016,5.435-3.245,9.106c-0.294,4.702,1.934,9.003,6.111,11.801
			c4.853,3.25,11.484,3.792,16.498,1.343c6.766-3.296,10.848-9.787,14.316-15.923c6.568,2.911,13.069,5.669,19.491,8.243
			c-3.052,6.439-5.431,13.879,0.218,20.918c2.749,3.425,6.799,5.402,11.405,5.569c6.134,0.261,12.798-2.707,17.374-7.639
			c2.065-2.227,3.722-4.344,5.235-6.448c6.566,2.097,13.056,3.951,19.514,5.69c-1.175,4.01-2.571,7.891-4.414,11.07l7.763,4.499
			c2.296-3.964,3.972-8.648,5.323-13.279c9.682,2.383,19.266,4.373,28.784,5.964c3.272,0.546,6.551,1.052,9.841,1.513
			c8.106,1.128,16.043,2.516,23.591,4.126l1.232,0.261c4.556,0.967,8.491,1.804,12.296,3.212c-0.302,0.211-0.592,0.408-0.856,0.565
			c-2.708,1.631-5.355,2.837-7.865,3.589c-22.359,6.675-46.749,8.212-70.337,9.694l-2.578,0.164h-0.005c-0.001,0-0.001,0-0.002,0
			c-0.257,0.02-0.59,0.041-0.921,0.061c-0.117,0.007-0.205,0.014-0.332,0.022c-22.204,1.299-184.468,4.002-290.33-0.177
			c-17.829-30.808-46.46-55.328-79.644-68.199C379.427,341.206,383.897,334.791,388.292,335.107z M371.373,371.586
			c0.598-3.641,1.279-7.037,2.016-10.218c29,11.471,54.228,32.41,70.959,58.733c-34.38-1.585-61.512-3.991-73.734-7.544
			C368.529,400.801,368.781,387.361,371.373,371.586z M367.92,421.417c0.465,0.132,0.993,0.258,1.493,0.387
			c13.345,3.468,39.293,5.834,71.659,7.406c0.524,0.025,1.043,0.051,1.57,0.076c1.48,0.071,2.979,0.138,4.485,0.205
			c1.104,0.049,2.211,0.099,3.328,0.146c1.09,0.047,2.186,0.092,3.287,0.136c1.665,0.068,3.344,0.134,5.035,0.199
			c0.647,0.024,1.294,0.048,1.945,0.073c2.347,0.086,4.717,0.17,7.109,0.25c0.057,0.002,0.114,0.005,0.171,0.006
			c111.637,3.73,270.424,0.335,279.71-0.38l2.518-0.158c24.107-1.519,49.034-3.089,72.407-10.067
			c3.257-0.973,6.62-2.495,9.991-4.526c0.609-0.366,1.331-0.871,2.088-1.412c0.185-0.132,0.358-0.252,0.548-0.389
			c0.026-0.018,0.061-0.044,0.088-0.064c0.256-0.183,0.521-0.374,0.792-0.567c0.066-0.046,0.136-0.095,0.203-0.142
			c0.277-0.195,0.556-0.389,0.829-0.571c0.029-0.021,0.058-0.039,0.088-0.058c0.496-0.328,0.945-0.59,1.342-0.787
			c0.465,0.364,1.092,0.998,1.47,1.385l0.291,0.294c2.114,2.13,3.907,4.947,5.483,8.477c-1.469,0.78-2.897,1.757-4.22,2.69
			c-0.75,0.527-1.449,1.031-2.036,1.376c-2.69,1.579-10.958,5.223-13.612,5.996c-22.899,6.681-47.865,8.218-72.009,9.703
			l-2.674,0.164c-9.782,0.733-96.823,2.537-187.676,2.052c-109.27-0.593-179.439-4.326-198.985-10.54
			C365.701,427.883,366.955,424.004,367.92,421.417z M374.748,489.337c-8.974-1.149-9.152-6.611-9.001-8.188
			c0.059-0.458,0.05-0.922-0.029-1.376l-2.213-12.898c-1.361-9.306-1.21-17.747-0.386-24.909
			c30.284,8.508,135.125,10.662,228.409,10.662c30.393,0,59.549-0.228,84.494-0.539c-10.777,9.205-20.703,23.678-29.638,43.239
			C540.145,498.116,389.764,490.697,374.748,489.337z M835.681,473.674l-1.74,0.518c-22.073,6.669-45.846,9.461-68.835,12.165
			l-2.878,0.336c-25.142,2.962-51.511,5.341-78.359,7.075c-8.512,0.516-17.598,0.926-27.101,1.247
			c10.882-22.547,22.908-36.932,35.811-42.752l-0.18-0.399c33.23-0.496,56.142-1.094,59.535-1.35l2.608-0.161
			c24.652-1.516,50.146-3.083,74.037-10.055c3.647-1.064,12.613-5.084,15.713-6.905c0.771-0.452,1.698-1.097,2.683-1.792
			c0.274-0.194,0.608-0.43,0.965-0.676c0.544,6.191,0.663,14.221,0.752,20.283c0.067,4.611,0.124,8.591,0.327,11.131
			C849.546,468.927,845.78,470.679,835.681,473.674z"/>
	</g>
</g>
<g id="Text">
	<g>
		
			<text transform="matrix(1.2807 0 0 1 87.3954 849.6429)" style="font-family:'Anton-Regular'; font-size:132px; letter-spacing:6.246;">SHOESRELIFE</text>
	</g>
	<g>
		<text transform="matrix(1 0 0 1 312.7739 931.8109)" style="font-family:'Asap-Regular'; font-size:41px; letter-spacing:4;">STREETWEAR FOR ALL AGES</text>
	</g>
</g>
</svg>
